<?xml version="1.0" encoding="utf-8"?>
<!-- Generator: Adobe Illustrator 18.1.0, SVG Export Plug-In . SVG Version: 6.00 Build 0)  -->
<svg version="1.1" id="Layer_1" xmlns="http://www.w3.org/2000/svg" xmlns:xlink="http://www.w3.org/1999/xlink" x="0px" y="0px"
	 viewBox="0 0 251.3 118.1" enable-background="new 0 0 251.3 118.1" xml:space="preserve">
<defs>
    <style type="text/css"><![CDATA[
      .letters {
        fill: #A6A8AB;
        fill: white;
      }
      .separator {
      	fill: #6D6E70;
    	fill: white;
      }
    ]]></style>
</defs>
<g>
	<path class="letters" d="M60.9,90c0,1.5-0.4,2.7-1.1,3.6c-0.3,0.3-0.5,0.5-0.6,0.7c-0.4,0.3-0.8,0.5-1.4,0.7c-0.5,0.2-1,0.3-1.8,0.3
		c-1.2,0-2-0.1-2.6-0.4c-0.4-0.2-0.8-0.5-1.1-0.8c-0.4-0.4-0.6-0.9-0.8-1.3c-0.2-0.6-0.3-1.4-0.3-2.3c0-0.7,0.1-1.3,0.3-1.9
		c0.2-0.7,0.5-1.3,1-1.7c0.4-0.5,1-0.9,1.8-1.2c0.6-0.2,1.2-0.3,1.9-0.3c1,0,1.8,0.1,2.4,0.4c0.6,0.3,1.1,0.7,1.4,1.1
		C60.6,87.5,60.9,88.6,60.9,90z M59.7,90.3c0-0.7-0.1-1.3-0.2-1.8c-0.2-0.6-0.5-1.1-0.9-1.6c-0.4-0.4-0.8-0.7-1.3-0.9
		c-0.6-0.2-1.1-0.4-1.7-0.4c-0.7,0-1.3,0.1-1.6,0.4c-0.6,0.4-1,0.9-1.2,1.4c-0.3,0.7-0.5,1.5-0.5,2.5c0,1.4,0.3,2.6,0.8,3.4
		c0.3,0.5,0.8,0.9,1.5,1.2c0.5,0.2,1.1,0.4,1.7,0.4c0.7,0,1.3-0.2,1.9-0.6c0.4-0.3,0.8-0.8,1.1-1.5C59.6,92.2,59.7,91.3,59.7,90.3z"
		/>
	<path class="letters" d="M75,95C75,95.1,75,95.1,75,95l-2.4,0.1c-0.1,0-0.1,0-0.2-0.1c-0.2-0.2-0.5-0.6-1-1.2
		c-0.3-0.4-0.5-0.7-0.8-1.1c-0.3-0.4-0.7-1.1-1.2-2c0-0.1-0.1-0.1-0.1-0.1c-0.2,0-0.6,0-1.2-0.1c-0.1,0-0.1,0-0.1,0.1
		c0,0.1,0,0.4,0,0.9c0,0.5,0,1.1,0,1.6c0,1.1,0.1,1.6,0.3,1.6h1.3c0,0,0.1,0,0.1,0.1V95c0,0,0,0.1-0.1,0.1h-3.8c0,0-0.1,0-0.1,0
		c0,0,0,0,0-0.1v-0.2c0,0,0-0.1,0-0.1c0,0,0,0,0.1,0h1c0.1,0,0.1-0.1,0.1-0.2v-3.9v-3c0-1.3-0.1-2-0.3-2h-0.9c0,0-0.1,0-0.1-0.1
		v-0.3c0,0,0-0.1,0.1-0.1h2.2c0.1,0,0.3,0,0.8,0c0.5,0,0.8,0,0.8,0c0.3,0,0.6,0,0.9,0.1c0.7,0.1,1.2,0.4,1.6,0.7
		c0.5,0.5,0.7,1,0.7,1.7c0,0.8-0.2,1.4-0.7,1.9c-0.3,0.3-0.8,0.6-1.4,0.8c0,0-0.1,0,0,0.1c0.2,0.6,0.7,1.3,1.5,2.1
		c0.4,0.5,0.7,0.8,0.9,1c0.3,0.3,0.6,0.6,0.8,0.8c0.3,0.2,0.7,0.3,1.2,0.3c0.1,0,0.1,0,0.1,0.1V95z M71.5,88.1
		c0-0.6-0.2-1.2-0.6-1.6c-0.6-0.6-1.5-0.8-2.6-0.8c-0.2,0-0.3,0-0.3,0.1c0,1.4,0,2.3,0,2.6V90c0,0.1,0,0.1,0.1,0.1
		c0.1,0,0.4,0,0.9,0c0.2,0,0.4,0,0.7-0.1c0.3,0,0.4-0.1,0.4-0.1C71,89.8,71.5,89.1,71.5,88.1z"/>
	<path class="letters" d="M87.5,85.3c0,0.3-0.1,0.7-0.2,1.1c0,0.1,0,0.1-0.1,0.1c0,0-0.1,0-0.1-0.1C87,86.2,86.8,86,86.5,86
		c-0.5-0.1-1.3-0.2-2.6-0.2c-0.1,0-0.1,0-0.1,0.1c0,0.1,0,1.2,0,3.4c0,2.1,0,3.2,0,3.4c0,1.4,0.1,2.1,0.4,2.1h1.2c0,0,0.1,0,0.1,0.1
		V95c0,0,0,0.1-0.1,0.1h-4c-0.1,0-0.1,0-0.1-0.1v-0.2c0,0,0-0.1,0.1-0.1h1.2c0.1,0,0.1-0.1,0.1-0.2c0-1,0-1.6,0-1.7
		c0-0.1,0-0.9,0-2.5c0-1.6,0-2.4,0-2.4c0-1.5-0.1-2.2-0.3-2.2c-1.2,0-2.1,0.1-2.6,0.2c-0.4,0.1-0.6,0.2-0.7,0.4
		c-0.1,0.1-0.1,0.1-0.1,0.1c-0.1,0-0.1,0-0.1-0.1c0-0.1,0-0.1,0.1-0.2c0.1-0.5,0.2-0.9,0.3-1.1c0-0.1,0.1-0.1,0.2-0.1
		c0.1,0,0.6,0,1.5,0.1c1,0,1.9,0.1,2.5,0.1c2.1,0,3.2,0,3.5,0c0.1,0,0.3,0,0.4,0c0.1,0,0.2,0,0.2,0C87.5,85.2,87.5,85.3,87.5,85.3z"
		/>
	<path class="letters" d="M102.2,95C102.2,95.1,102.2,95.1,102.2,95l-3.8,0.1c-0.1,0-0.1,0-0.1-0.1v-0.2c0,0,0-0.1,0.1-0.1h1.1
		c0.1,0,0.1,0,0.2-0.1c0,0,0-0.2,0-0.5c0-0.5,0-1.9,0-4c0-0.1,0-0.1-0.1-0.1h-5.1c-0.1,0-0.1,0.1-0.1,0.2c0,1.6,0,2.5,0,2.9
		c0,1.1,0.1,1.6,0.3,1.6h1.2c0,0,0.1,0,0.1,0.1V95c0,0,0,0.1-0.1,0.1h-3.8c-0.1,0-0.1,0-0.1-0.1v-0.2c0-0.1,0-0.1,0.1-0.1H93
		c0.1,0,0.2,0,0.2-0.1c0,0,0-0.2,0-0.5c0-0.1,0-0.7,0-2c0-1.2,0-1.9,0-2.1c0-0.1,0-0.7,0-1.6c0-0.9,0-1.4,0-1.5c0-1-0.1-1.5-0.2-1.5
		h-1c-0.1,0-0.1,0-0.1-0.1v-0.2c0,0,0-0.1,0.1-0.1h3.7c0.1,0,0.1,0,0.1,0.1v0.2c0,0,0,0.1-0.1,0.1h-1.1c-0.1,0-0.2,0-0.2,0
		c0,0,0,0.1,0,0.2c0,2.6,0,3.7,0,3.5c0,0.1,0,0.2,0.1,0.2h5.1c0.1,0,0.1,0,0.1-0.1c0,0,0-0.4,0-1.2c0-0.7,0-1.1,0-1.2
		c0-0.9-0.1-1.4-0.3-1.4h-1.1c0,0-0.1,0-0.1-0.1v-0.2c0,0,0-0.1,0.1-0.1h3.7c0.1,0,0.1,0,0.1,0.1v0.2c0,0.1,0,0.1-0.1,0.1h-1
		c-0.1,0-0.2,0-0.2,0c0,0,0,0.1,0,0.2v3.9c0,2,0,3.1,0,3.4c0,1,0.1,1.5,0.3,1.5h1.1c0.1,0,0.1,0,0.1,0.1V95z"/>
	<path class="letters" d="M116.4,90c0,1.5-0.4,2.7-1.1,3.6c-0.3,0.3-0.5,0.5-0.6,0.7c-0.4,0.3-0.8,0.5-1.4,0.7
		c-0.5,0.2-1,0.3-1.8,0.3c-1.2,0-2-0.1-2.6-0.4c-0.4-0.2-0.8-0.5-1.1-0.8c-0.4-0.4-0.6-0.9-0.8-1.3c-0.2-0.6-0.3-1.4-0.3-2.3
		c0-0.7,0.1-1.3,0.3-1.9c0.2-0.7,0.5-1.3,1-1.7c0.4-0.5,1-0.9,1.8-1.2c0.6-0.2,1.2-0.3,1.9-0.3c1,0,1.8,0.1,2.4,0.4
		c0.6,0.3,1.1,0.7,1.4,1.1C116.1,87.5,116.4,88.6,116.4,90z M115.2,90.3c0-0.7-0.1-1.3-0.2-1.8c-0.2-0.6-0.5-1.1-0.9-1.6
		c-0.4-0.4-0.8-0.7-1.3-0.9c-0.6-0.2-1.1-0.4-1.7-0.4c-0.7,0-1.3,0.1-1.6,0.4c-0.6,0.4-1,0.9-1.2,1.4c-0.3,0.7-0.5,1.5-0.5,2.5
		c0,1.4,0.3,2.6,0.8,3.4c0.3,0.5,0.8,0.9,1.5,1.2c0.5,0.2,1.1,0.4,1.7,0.4c0.7,0,1.3-0.2,1.9-0.6c0.4-0.3,0.8-0.8,1.1-1.5
		C115.1,92.2,115.2,91.3,115.2,90.3z"/>
	<path class="letters" d="M128.3,88.2c0,0.7-0.3,1.4-0.8,1.9c-0.5,0.6-1.3,0.8-2.3,0.8c-0.5,0-1-0.1-1.7-0.3c0,0-0.1,0-0.1,0v2.4
		c0,1.1,0.1,1.7,0.3,1.7h1.3c0.1,0,0.1,0,0.1,0.1V95c0,0.1,0,0.1,0,0.1h-3.9c0,0-0.1,0-0.1-0.1v-0.2c0-0.1,0-0.1,0.1-0.1h1
		c0.1,0,0.1-0.1,0.1-0.2v-7.5c0-0.9-0.1-1.3-0.2-1.3h-1c-0.1,0-0.1,0-0.1-0.1v-0.3c0-0.1,0-0.1,0.1-0.1h1.8c0.1,0,0.4,0,1,0
		c0.6,0,0.9,0,0.9,0c0.5,0,1,0,1.3,0.1c0.6,0.1,1,0.4,1.5,0.8C128.1,86.7,128.3,87.4,128.3,88.2z M127.2,88.3c0-0.6-0.2-1.2-0.7-1.7
		c-0.6-0.6-1.3-0.8-2.4-0.8c-0.3,0-0.4,0-0.5,0c0,0-0.1,0.1-0.1,0.1c0,0.3,0,1,0,2.2c0,0,0,0.4,0,1c0,0.6,0,1,0,1
		c0,0.1,0,0.1,0.1,0.1c0.3,0.1,0.8,0.2,1.4,0.2c0.7,0,1.3-0.2,1.6-0.5C127,89.6,127.2,89,127.2,88.3z"/>
	<path class="letters" d="M141.9,95C141.9,95.1,141.9,95.1,141.9,95l-3.4,0.1c0,0-0.1,0-0.1-0.1v-0.2c0-0.1,0-0.1,0.1-0.1h1
		c0.1,0,0.1,0,0.1-0.1c0-0.2-0.2-0.7-0.5-1.5c-0.3-0.9-0.4-1.3-0.5-1.4c0-0.1-0.1-0.1-0.2-0.1H135c0,0-0.1,0-0.1,0.1
		c-0.1,0.1-0.2,0.4-0.3,0.9c-0.2,0.5-0.3,0.8-0.3,1c-0.1,0.4-0.1,0.6-0.1,0.7c0,0.3,0,0.5,0.1,0.5h1.1c0.1,0,0.1,0,0.1,0.1V95
		c0,0,0,0.1-0.1,0.1h-2.9c0,0-0.1,0-0.1-0.1v-0.2c0,0,0-0.1,0.1-0.1h0.6c0.1,0,0.3-0.2,0.4-0.7c0.2-0.5,0.7-1.8,1.6-3.9
		c0.6-1.4,1.3-3,2.1-5c0.1-0.2,0.1-0.2,0.2-0.3c0.1,0,0.3-0.1,0.5-0.2c0,0,0.1,0,0.1,0.1c0,0.1,0,0.1-0.1,0.2
		c-0.1,0.2-0.2,0.3-0.2,0.4c0,0.1,0,0.3,0.1,0.5c0.3,0.7,0.7,2.1,1.4,4.1c0.7,2,1.2,3.3,1.4,3.9c0.3,0.5,0.4,0.8,0.6,0.8h0.7
		c0,0,0.1,0,0.1,0.1V95z M138.4,90.9c-0.2-0.6-0.4-1.2-0.6-1.9c-0.2-0.7-0.5-1.4-0.7-2.1c0-0.1,0-0.1-0.1-0.1c0,0,0,0.1-0.1,0.1
		c-0.6,1.5-1,2.5-1.3,3.2c-0.3,0.6-0.4,0.9-0.4,1c0,0,0,0,0.1,0h3.1C138.4,91,138.4,91,138.4,90.9z"/>
	<path class="letters" d="M153.7,94.1c-0.1,0.3-0.3,0.6-0.5,1c0,0.1-0.1,0.1-0.2,0.1h-6.9c0,0-0.1,0-0.1-0.1v-0.2c0,0,0-0.1,0.1-0.1
		h1.1c0.1,0,0.1-0.1,0.1-0.2c0,0,0-0.8,0-2.2c0-1.4,0-2.2,0-2.2s0-0.5,0-1.5s0-1.5,0-1.5c0-1-0.1-1.5-0.3-1.5h-0.9
		c0,0-0.1,0-0.1-0.1v-0.2c0,0,0-0.1,0.1-0.1h6.5c0.1,0,0.2,0,0.4,0c0.1,0,0.2,0,0.2,0c0.1,0,0.1,0,0.1,0.1c-0.1,0.3-0.2,0.6-0.3,0.9
		c0,0.1-0.1,0.2-0.1,0.2l-0.1-0.1c-0.2-0.2-0.5-0.3-0.8-0.4c-0.5-0.1-1.7-0.2-3.4-0.2c-0.1,0-0.1,0-0.1,0.1c0,0.1,0,1.3,0,3.6
		c0,0.1,0,0.1,0.1,0.1h3.5c0.1,0,0.1,0,0.1-0.1c0-0.1,0-0.2,0.1-0.5c0-0.2,0-0.4,0-0.4c0-0.1,0-0.1,0.1-0.1h0.1c0.1,0,0.1,0,0.1,0.1
		c0,0,0,0.2,0,0.6c0,0.4,0,0.6,0,0.7c0,0.1,0,0.3,0,0.8c0,0.4,0,0.7,0,0.7c0,0.1,0,0.2-0.1,0.2h-0.1c0,0-0.1,0-0.1-0.1
		c0-0.3,0-0.7-0.1-1.1c0-0.1-0.1-0.1-0.1-0.1c0,0-0.6,0-1.8,0c-1.1,0-1.7,0-1.8,0c-0.1,0-0.1,0-0.1,0.1v2.7c0,1.2,0.1,1.7,0.4,1.7
		c2.3,0,3.8-0.2,4.5-0.5C153.6,94,153.7,94,153.7,94.1C153.8,94,153.8,94,153.7,94.1z"/>
	<path class="letters" d="M167.3,90.1c0,2-0.7,3.5-2,4.4c-0.5,0.3-1,0.5-1.7,0.6c-0.4,0.1-0.9,0.1-1.7,0.1c-0.3,0-0.8,0-1.3,0
		c-0.5,0-1,0-1.4,0h-0.8c0,0-0.1,0-0.1-0.1c0,0,0,0,0-0.1c0-0.1,0-0.1,0-0.1c0,0,0-0.1,0.1-0.1h1c0.1,0,0.1-0.1,0.1-0.2
		c0-0.1,0-0.7,0-1.9c0-1.2,0-1.9,0-2l0-1.8c0-1.1,0-1.6,0-1.7c0-1-0.1-1.5-0.3-1.5h-1c-0.1,0-0.1,0-0.1-0.1v-0.2c0,0,0-0.1,0.1-0.1
		h4.5c0.7,0,1.3,0.1,1.8,0.3c0.3,0.1,0.5,0.2,0.6,0.3c0.3,0.2,0.6,0.4,0.9,0.7C166.8,87.3,167.3,88.5,167.3,90.1z M166.2,91.1
		c0-1.5-0.4-2.7-1.1-3.6c-0.5-0.7-1.1-1.1-1.8-1.4c-0.7-0.3-1.3-0.4-2-0.4c-0.3,0-0.5,0-0.6,0c-0.1,0-0.2,0.1-0.2,0.3
		c0,0.1,0,0.7,0,1.8c0,1.1,0,1.8,0,1.9v2.9c0,1.3,0.1,1.9,0.2,1.9c0.4,0.1,1,0.1,2,0.1c1,0,1.8-0.3,2.3-0.8
		C165.9,93.2,166.2,92.3,166.2,91.1z"/>
	<path class="letters" d="M175.7,95C175.7,95.1,175.7,95.1,175.7,95l-3.6,0.1c0,0-0.1,0-0.1,0c0,0,0,0,0-0.1v-0.2c0,0,0-0.1,0-0.1
		c0,0,0,0,0.1,0h1c0.1,0,0.1-0.1,0.1-0.2l0-7.5c0-0.9-0.1-1.4-0.3-1.4h-0.9c-0.1,0-0.1,0-0.1-0.1v-0.3c0,0,0-0.1,0.1-0.1h3.5
		c0,0,0.1,0,0.1,0.1v0.3c0,0,0,0.1-0.1,0.1h-1c-0.1,0-0.1,0.1-0.1,0.2c0,4.4,0,6.7,0,6.8c0,0.7,0,1.1,0,1.2c0,0.6,0.1,0.9,0.3,0.9h1
		c0,0,0.1,0,0.1,0.1V95z"/>
	<path class="letters" d="M189.4,93.7c0,0,0,0.1,0,0.1c-0.4,0.4-1,0.7-1.8,1c-0.7,0.2-1.5,0.4-2.5,0.4c-0.8,0-1.5-0.1-2-0.3
		c-0.5-0.2-1-0.5-1.5-1c-0.8-0.8-1.2-1.9-1.2-3.5c0-0.9,0.2-1.8,0.7-2.6c0.4-0.7,0.9-1.3,1.7-1.8c1-0.6,2.2-1,3.8-1
		c0.6,0,1.1,0,1.6,0.1c0.6,0.1,0.9,0.1,1.1,0.2c0,0,0,0,0,0.1c0,0.1,0,0.3-0.1,0.6c0,0.3-0.1,0.5-0.1,0.7c0,0.1,0,0.1-0.1,0.1
		c0,0-0.1,0-0.1-0.1c0,0,0-0.1-0.1-0.2c0-0.1-0.2-0.3-0.6-0.5c-0.5-0.3-1.3-0.4-2.3-0.4c-1.3,0-2.3,0.4-3.1,1.2
		c-0.9,0.9-1.3,2-1.3,3.4c0,1.5,0.5,2.6,1.4,3.5c0.5,0.4,0.9,0.7,1.4,0.9c0.4,0.1,1,0.2,1.7,0.2c0.5,0,1-0.1,1.5-0.3
		c0.5-0.2,0.9-0.5,1.1-0.9c0.1-0.2,0.2-0.4,0.2-0.6c0-0.1,0-0.1,0-0.1c0,0,0,0,0.1,0.1c0,0.2,0.1,0.3,0.2,0.5
		C189.2,93.4,189.3,93.5,189.4,93.7z"/>
	<path class="letters" d="M200.2,92.4c0,0.8-0.3,1.5-0.8,2c-0.5,0.5-1.3,0.8-2.4,0.8c-1.2,0-2.1-0.2-2.6-0.7
		c-0.1-0.1-0.1-0.2-0.1-0.3c0,0,0-0.3,0-0.8c0-0.5,0-0.8,0-0.9c0-0.1,0-0.1,0.1-0.1h0.3c0.1,0,0.1,0,0.1,0.1c0,0.1,0,0.2,0,0.5
		c0,0.5,0.2,0.9,0.6,1.3c0.2,0.2,0.4,0.3,0.7,0.4c0.3,0.1,0.6,0.2,0.8,0.2c1,0,1.6-0.3,1.9-1c0.1-0.3,0.2-0.7,0.2-1.1
		c0-0.4-0.1-0.7-0.4-1c-0.3-0.3-0.8-0.6-1.6-0.9c-0.9-0.3-1.5-0.6-1.9-0.9c-0.5-0.4-0.7-1.1-0.7-1.9c0-0.8,0.3-1.5,1-2.1
		c0.5-0.4,1.2-0.7,2-0.7c0.5,0,1.1,0.1,1.5,0.3c0.3,0.1,0.5,0.2,0.7,0.4c0.1,0,0.1,0.1,0.1,0.2c0.1,0.4,0.1,0.9,0.1,1.5
		c0,0.1,0,0.2,0,0.2h-0.3c0,0-0.1,0-0.1-0.1c0-0.1-0.1-0.3-0.1-0.6c-0.1-0.3-0.2-0.6-0.5-0.7c-0.5-0.3-1.1-0.4-1.7-0.4
		c-0.6,0-1,0.1-1.3,0.4c-0.3,0.3-0.4,0.7-0.4,1.4c0,0.4,0.1,0.7,0.4,1c0.1,0.1,0.4,0.3,0.8,0.5c0.3,0.1,0.6,0.3,0.9,0.4
		c0.6,0.3,1,0.4,1.1,0.5c0.4,0.2,0.7,0.4,0.9,0.7C200.1,91.1,200.2,91.7,200.2,92.4z"/>
</g>
<rect x="15.7" y="77.9" class="separator" width="221.1" height="0.7"/>
<g>
	<path fill="#1B75BB" d="M121.8,61.3c0.9,0.2,2.5,0.3,5,0.3c2.8,0,4.8-0.7,6.2-2.1c1.9-1.9,2.8-4.6,2.8-8.1c0-2-0.2-3.7-0.6-5
		c-0.4-1.5-1.2-3-2.4-4.5c-1.2-1.6-2.8-2.8-4.6-3.6c-1.8-0.8-3.5-1.2-5.2-1.2c-0.6,0-1,0-1.4,0.1c-0.3,0.1-0.4,0.3-0.4,0.8
		c0,0.2,0,1.8,0,4.9c0,3,0,4.8,0,5.2v8C121.2,59.4,121.4,61.2,121.8,61.3z"/>
	<path fill="#1B75BB" d="M103.1,25.8v9.9l23.3,0c1.9,0,3.7,0.3,5.3,0.8c1.6,0.5,3.2,1.4,4.7,2.8c2.5,2.2,3.7,5.5,3.7,9.7
		c0,5.5-2,9.5-6.1,12c-1.5,0.9-3.1,1.5-5,1.8c-1.1,0.2-2.8,0.2-5.1,0.2c-1,0-2.3,0-4-0.1c-1.6-0.1-3-0.1-4-0.1h-2.3
		c-0.1,0-0.2,0-0.2-0.1c0,0,0-0.1,0-0.1v-0.9c0-0.1,0.1-0.2,0.2-0.2h3c0.2,0,0.3-0.2,0.3-0.6c0-0.2,0-1.9,0-5.1c0-3.2,0-5,0-5.3
		c0-0.3,0-1.9,0-4.7c0-2.8,0-4.3,0-4.6c0-2.8-0.3-4.2-0.8-4.2l-13,0v35h46.3V25.8H103.1z"/>
	<path fill="#FFFFFF" d="M116.9,41.2c0,0.2,0,1.7,0,4.6c0,2.8,0,4.4,0,4.7c0,0.3,0,2.1,0,5.3c0,3.2,0,4.9,0,5.1
		c0,0.4-0.1,0.6-0.3,0.6h-3c-0.2,0-0.2,0.1-0.2,0.2v0.9c0,0.1,0,0.1,0,0.1c0,0,0.1,0.1,0.2,0.1h2.3c1.1,0,2.4,0,4,0.1
		c1.6,0.1,2.9,0.1,4,0.1c2.3,0,4-0.1,5.1-0.2c1.9-0.3,3.6-0.9,5-1.8c4.1-2.5,6.1-6.5,6.1-12c0-4.3-1.2-7.5-3.7-9.7
		c-1.5-1.3-3.1-2.3-4.7-2.8c-1.6-0.5-3.4-0.8-5.3-0.8l-23.3,0V37l13,0C116.7,37,116.9,38.4,116.9,41.2z M121.2,48c0-0.4,0-2.1,0-5.2
		c0-3,0-4.7,0-4.9c0-0.5,0.1-0.7,0.4-0.8c0.4-0.1,0.9-0.1,1.4-0.1c1.7,0,3.4,0.4,5.2,1.2c1.9,0.8,3.4,2,4.6,3.6
		c1.1,1.5,1.9,3,2.4,4.5c0.4,1.3,0.6,3,0.6,5c0,3.5-0.9,6.2-2.8,8.1c-1.3,1.4-3.4,2.1-6.2,2.1c-2.5,0-4.2-0.1-5-0.3
		c-0.4-0.1-0.7-1.9-0.7-5.3V48z"/>
</g>
<g>
	<path fill="#1E3E74" d="M69.4,61.3c0.9,0.2,2.5,0.3,5,0.3c2.8,0,4.8-0.7,6.2-2.1c1.9-1.9,2.8-4.6,2.8-8.1c0-2-0.2-3.7-0.6-5
		c-0.4-1.5-1.2-3-2.4-4.5c-1.2-1.6-2.8-2.8-4.6-3.6c-1.8-0.8-3.5-1.2-5.2-1.2c-0.6,0-1,0-1.4,0.1c-0.3,0.1-0.4,0.3-0.4,0.8
		c0,0.2,0,1.8,0,4.9c0,3,0,4.8,0,5.2v8C68.8,59.4,69,61.2,69.4,61.3z"/>
	<path fill="#1E3E74" d="M50.7,25.8v9.9l23.3,0c1.9,0,3.7,0.3,5.3,0.8c1.6,0.5,3.2,1.4,4.7,2.8c2.5,2.2,3.7,5.5,3.7,9.7
		c0,5.5-2,9.5-6.1,12c-1.5,0.9-3.1,1.5-5,1.8c-1.1,0.2-2.8,0.2-5.1,0.2c-1,0-2.3,0-4-0.1c-1.6-0.1-3-0.1-4-0.1h-2.3
		c-0.1,0-0.2,0-0.2-0.1c0,0,0-0.1,0-0.1v-0.9c0-0.1,0.1-0.2,0.2-0.2h3c0.2,0,0.3-0.2,0.3-0.6c0-0.2,0-1.9,0-5.1c0-3.2,0-5,0-5.3
		c0-0.3,0-1.9,0-4.7c0-2.8,0-4.3,0-4.6c0-2.8-0.3-4.2-0.8-4.2l-13,0v35H97V25.8H50.7z"/>
	<path fill="#FFFFFF" d="M64.5,41.2c0,0.2,0,1.7,0,4.6c0,2.8,0,4.4,0,4.7c0,0.3,0,2.1,0,5.3c0,3.2,0,4.9,0,5.1
		c0,0.4-0.1,0.6-0.3,0.6h-3c-0.2,0-0.2,0.1-0.2,0.2v0.9c0,0.1,0,0.1,0,0.1c0,0,0.1,0.1,0.2,0.1h2.3c1.1,0,2.4,0,4,0.1
		c1.6,0.1,2.9,0.1,4,0.1c2.3,0,4-0.1,5.1-0.2c1.9-0.3,3.6-0.9,5-1.8c4.1-2.5,6.1-6.5,6.1-12c0-4.3-1.2-7.5-3.7-9.7
		c-1.5-1.3-3.1-2.3-4.7-2.8c-1.6-0.5-3.4-0.8-5.3-0.8l-23.3,0V37l13,0C64.2,37,64.5,38.4,64.5,41.2z M68.8,48c0-0.4,0-2.1,0-5.2
		c0-3,0-4.7,0-4.9c0-0.5,0.1-0.7,0.4-0.8c0.4-0.1,0.9-0.1,1.4-0.1c1.7,0,3.4,0.4,5.2,1.2c1.9,0.8,3.4,2,4.6,3.6
		c1.1,1.5,1.9,3,2.4,4.5c0.4,1.3,0.6,3,0.6,5c0,3.5-0.9,6.2-2.8,8.1c-1.3,1.4-3.4,2.1-6.2,2.1c-2.5,0-4.2-0.1-5-0.3
		c-0.4-0.1-0.7-1.9-0.7-5.3V48z"/>
</g>
<g>
	<path fill="#1B75BB" d="M154.2,25.8V72h46.3V53.4h-14.8c0.9,2.4,1.8,4.4,2.5,5.9c0.7,1.5,1.3,2.2,1.6,2.2h1.4
		c0.1,0,0.2,0.1,0.2,0.3v0.8c0,0.1,0,0.2-0.1,0.2h-9.8c-0.1,0-0.1-0.1-0.1-0.2v-0.8c0-0.2,0.1-0.3,0.3-0.3h2.4
		c0.2,0,0.3-0.1,0.3-0.4c0,0,0-0.1,0-0.2c-0.1-0.3-0.5-1.5-1.3-3.8c-0.8-2.3-1.3-3.6-1.4-3.8c-0.1-0.3-0.2-0.4-0.4-0.4h-9.5
		c-0.2,0-0.3,0.1-0.3,0.3c-0.7,1.9-1.2,3.6-1.6,5.1c-0.3,1-0.5,1.8-0.6,2.6c0,0.4,0.1,0.6,0.4,0.6h3c0.2,0,0.2,0.1,0.2,0.3v0.8
		c0,0.1-0.1,0.2-0.2,0.2h-8.5c-0.1,0-0.2-0.1-0.2-0.2v-0.9c0-0.1,0.1-0.2,0.2-0.2h1.5c0.3,0,0.6-0.4,1-1.2c1.6-3.7,3.2-7.4,4.8-11.3
		c3-7,4.8-10.9,5.2-11.7c0.4-0.7,0.6-1.4,0.9-2c0.2-0.4,0.3-0.7,0.5-0.7c0.7-0.1,1.5-0.3,2.4-0.5c0.2-0.1,0.3-0.1,0.3-0.1
		c0.1,0,0.2,0.1,0.3,0.2c0.1,0.1,0.1,0.2,0.1,0.4c-0.1,0.1-0.1,0.2-0.2,0.2c-0.1,0.1-0.2,0.2-0.4,0.5c-0.3,0.3-0.4,0.6-0.4,0.9
		c0,0.2,0.1,0.7,0.3,1.5c0.2,0.9,0.9,2.7,2,5.5c0.2,0.5,1,2.8,2.5,7c0.2,0.6,0.4,1.1,0.6,1.7h15.3V25.8H154.2z"/>
	<path fill="#1B75BB" d="M178.7,46.1c-0.5-1.5-1-3.1-1.5-4.8c-0.1-0.5-0.3-0.7-0.5-0.7c-0.2,0-0.4,0.2-0.5,0.7
		c-0.5,1.2-1.1,2.6-1.7,4.1c-0.8,1.8-1.6,3.7-2.5,5.8c-0.1,0.2-0.1,0.3-0.1,0.3c0,0.1,0.1,0.1,0.2,0.1h8.4c0.1,0,0.1-0.1,0.1-0.3
		C180.4,50.9,179.8,49.1,178.7,46.1z"/>
	<path fill="#FFFFFF" d="M184.5,50.4c-1.5-4.2-2.3-6.5-2.5-7c-1.1-2.8-1.8-4.7-2-5.5c-0.2-0.8-0.3-1.3-0.3-1.5
		c0-0.2,0.1-0.5,0.4-0.9c0.2-0.3,0.3-0.5,0.4-0.5c0.1-0.1,0.1-0.2,0.2-0.2c0-0.1,0-0.3-0.1-0.4c-0.1-0.1-0.2-0.2-0.3-0.2
		c0,0-0.1,0-0.3,0.1c-0.9,0.2-1.7,0.4-2.4,0.5c-0.1,0-0.3,0.3-0.5,0.7c-0.2,0.6-0.5,1.2-0.9,2c-0.4,0.9-2.1,4.8-5.2,11.7
		c-1.7,3.9-3.3,7.6-4.8,11.3c-0.4,0.8-0.7,1.2-1,1.2h-1.5c-0.1,0-0.2,0.1-0.2,0.2v0.9c0,0.1,0.1,0.2,0.2,0.2h8.5
		c0.1,0,0.2-0.1,0.2-0.2v-0.8c0-0.2-0.1-0.3-0.2-0.3h-3c-0.2,0-0.3-0.2-0.4-0.6c0.1-0.7,0.3-1.6,0.6-2.6c0.4-1.5,1-3.1,1.6-5.1
		c0.1-0.1,0.2-0.2,0.3-0.3h9.5c0.2,0,0.3,0.1,0.4,0.4c0.1,0.2,0.6,1.4,1.4,3.8c0.8,2.3,1.2,3.5,1.3,3.8c0,0.1,0,0.1,0,0.2
		c0,0.2-0.1,0.4-0.3,0.4h-2.4c-0.2,0-0.3,0.1-0.3,0.3v0.8c0,0.2,0,0.2,0.1,0.2h9.8c0.1,0,0.1-0.1,0.1-0.2v-0.8
		c0-0.2-0.1-0.3-0.2-0.3h-1.4c-0.3,0-0.8-0.7-1.6-2.2c-0.7-1.5-1.6-3.5-2.5-5.9h14.8v-1.3h-15.3C184.9,51.5,184.7,51,184.5,50.4z
		 M180.5,51.6h-8.4c-0.1,0-0.1,0-0.2-0.1c0,0,0-0.1,0.1-0.3c0.9-2,1.7-4,2.5-5.8c0.6-1.5,1.2-2.9,1.7-4.1c0.2-0.5,0.4-0.7,0.5-0.7
		c0.2,0,0.3,0.2,0.5,0.7c0.5,1.7,1,3.3,1.5,4.8c1.1,3,1.7,4.8,1.9,5.2C180.6,51.5,180.6,51.6,180.5,51.6z"/>
</g>
</svg>
